# xmcd
#
# Track frame offsets:
#	225
#	21445
#	39747
#	59057
#	77371
#	94158
#	111978
#	129658
#	148261
#	163499
#	182728
#	199178
#	220648
#
# Disc length: 4440 seconds
#
# Revision: 1
# Processed by: cddbd v1.5.1PL0 Copyright (c) Steve Scherf et al.
# Submitted via: audiograbber 1.83.01
#
DISCID=c811550d
DTITLE=Pod Buda - Jak kapitalizm to kapitalizm
DYEAR=1900
DGENRE=
TTITLE0=Doliczyc do trzech
TTITLE1=Romans z Harlequina
TTITLE2=Nie przenoscie nam stolicy do Krakowa
TTITLE3=Sa takie sprawy
TTITLE4=Wyznanie barmana
TTITLE5=Widziane z ksiezyca
TTITLE6=Turkusowa polana
TTITLE7=Moje kobiety
TTITLE8=Na calosc
TTITLE9=Wywiad na pierwsza strone
TTITLE10=Jak kapitalizm to kapitalizm
TTITLE11=Dobra rada
TTITLE12=Data Track
EXTD=
EXTT0=
EXTT1=
EXTT2=
EXTT3=
EXTT4=
EXTT5=
EXTT6=
EXTT7=
EXTT8=
EXTT9=
EXTT10=
EXTT11=
EXTT12=
PLAYORDER=
